<?xml version="1.0" encoding="UTF-8"?><svg id="Layer_1" xmlns="http://www.w3.org/2000/svg" viewBox="0 0 2801.97 458.43"><defs><style>.cls-1{fill:#07274e;}</style></defs><path class="cls-1" d="M386.45,40.48c-59.06-.04-114.69,27.73-150.15,74.96l58.96,29.62c23.38-25.62,56.47-40.22,91.16-40.22,68.27,0,123.8,55.65,123.8,124.06s-55.54,124.12-123.8,124.12c-34.51,0-67.44-14.46-90.8-39.87l-59.04,29.64c35.46,47.04,90.96,74.69,149.87,74.67,103.87,0,188.07-84.38,188.07-188.49S490.32,40.51,386.45,40.51"/><polygon class="cls-1" points="629.98 409.33 696.51 409.33 696.51 111.59 778.99 111.59 778.99 48.6 547.49 48.6 547.49 111.59 629.98 111.59 629.98 409.33"/><path class="cls-1" d="M940.21,353.03c-68.27,0-123.8-55.65-123.8-124.12s55.53-124.02,123.8-124.02,123.8,55.65,123.8,124.06-55.54,124.12-123.8,124.12M940.21,40.52c-103.87,0-188.07,84.38-188.07,188.47s84.2,188.48,188.07,188.48,188.07-84.41,188.07-188.52-84.21-188.47-188.07-188.47"/><path class="cls-1" d="M922.24,155.94c-22.7.36-40.82,19.06-40.46,41.76.35,22.2,18.26,40.11,40.46,40.46,22.47,0,40.45-18.62,40.45-41.11s-17.99-41.12-40.45-41.12"/><polygon class="cls-1" points="337.02 196.94 16.35 35.95 16.35 109.88 254.03 229.22 16.35 348.55 16.35 422.49 337.02 261.48 337.02 196.94"/><polygon class="cls-1" points="1342.02 148.52 1308.23 262.1 1274.44 148.52 1249.7 148.52 1283.86 281.17 1331.6 281.17 1366.76 148.52 1342.02 148.52"/><path class="cls-1" d="M1417.13,177.43c-25.92,0-42.02,16.31-42.02,42.58v18.58c0,26.26,16.1,42.58,42.02,42.58s41.84-16.31,41.84-42.58v-18.58c0-26.26-16.03-42.58-41.84-42.58ZM1436.92,220.01v18.58c0,15.23-5.73,21.44-19.79,21.44s-19.97-6.41-19.97-21.44v-18.58c0-14.23,6.72-21.44,19.97-21.44s19.79,7.21,19.79,21.44Z"/><rect class="cls-1" x="1477.81" y="174.52" width="21.94" height="106.65"/><rect class="cls-1" x="1476.88" y="136.87" width="23.78" height="24.53"/><path class="cls-1" d="M1559.61,200.16c5.9,0,19.67,1.62,20.08,16.6l.08,3.06h22.56l-.05-3.2c-.39-22.59-17.14-37.19-42.67-37.19s-43.04,16-43.04,41.76v18.22c0,25.76,16.49,41.76,43.04,41.76s42.27-14.46,42.67-36.83l.05-3.2h-22.57l-.08,3.07c-.28,11.07-6.66,16.23-20.08,16.23-14.34,0-20.45-6.29-20.45-21.03v-18.22c0-13.95,6.88-21.03,20.45-21.03Z"/><path class="cls-1" d="M1680.34,246.54c-1.25,9.19-7.7,13.66-19.72,13.66-14.19,0-20.24-6.36-20.24-21.27v-.46h62.48v-18.01c-.37-26.42-16.16-42.19-42.24-42.19s-42.61,16.18-42.61,42.23v18.43c0,26.05,16.33,42.23,42.61,42.23,23.78,0,40.28-13.32,42.04-33.94v-.61h-22.25l-.07-.07ZM1640.42,218.41c.57-13.5,6.87-19.54,20.2-19.54,12.44,0,18.93,6.42,19.78,19.54h-39.98Z"/><path class="cls-1" d="M1795.93,178.69c-26,0-42.16,16.3-42.16,42.55v18.57c0,26.25,16.15,42.55,42.16,42.55s41.97-16.3,41.97-42.55v-18.57c0-26.25-16.08-42.55-41.97-42.55ZM1815.78,221.24v18.57c0,15.22-5.75,21.43-19.85,21.43s-20.03-6.41-20.03-21.43v-18.57c0-14.22,6.74-21.43,20.03-21.43s19.85,7.21,19.85,21.43Z"/><path class="cls-1" d="M1861.89,165.78v16.73h-13.46v20.77h13.46v77.89h22.73v-77.89h21.61v-20.77h-21.61v-20.8h22.56v-20.58h-19.04c-15.7,0-26.25,9.91-26.25,24.66Z"/><path class="cls-1" d="M1989.41,201.68h23.68v-20.84h-23.68v-20.67h-22.33v20.67h-14.59v20.84h14.21v51.97c0,16.65,10.59,26.2,29.07,26.2h17.7v-20.84h-24.05v-57.33Z"/><path class="cls-1" d="M2074.66,180.51c-10.04,0-17.77,2.09-23.72,6.48v-45.87h-22.13v138.73h22.13v-58.27c0-17.84,12.67-20.51,20.22-20.51,13.05,0,19.66,6.9,19.66,20.51v58.27h22.13v-61.67c0-22.53-15.39-37.68-38.28-37.68Z"/><path class="cls-1" d="M2320.23,147.98c-34.91,0-54.93,20.3-54.93,55.69v21.12c0,35.39,20.02,55.69,54.93,55.69s54.93-20.3,54.93-55.69v-21.12c0-35.39-20.02-55.69-54.93-55.69ZM2351.78,203.67v21.12c0,23.6-10.03,34.59-31.55,34.59s-31.55-10.99-31.55-34.59v-21.12c0-23.6,10.03-34.59,31.55-34.59s31.55,10.99,31.55,34.59Z"/><path class="cls-1" d="M2435.06,200.8c5.78,0,19.26,1.57,19.66,16.07l.08,2.97h22.09l-.05-3.1c-.38-21.87-16.78-36.01-41.79-36.01s-42.16,15.49-42.16,40.42v17.64c0,24.94,16.15,40.42,42.16,40.42s41.4-14,41.79-35.66l.05-3.1h-22.1l-.08,2.97c-.27,10.72-6.52,15.71-19.66,15.71-14.04,0-20.03-6.09-20.03-20.36v-17.64c0-13.51,6.74-20.36,20.03-20.36Z"/><path class="cls-1" d="M2658.21,183.44c-5.84-3.23-12.82-4.91-20.55-4.91-26.56,0-43.06,16.27-43.06,42.47v18.53c0,26.2,16.5,42.47,43.06,42.47,7.73,0,14.72-1.68,20.55-4.91v3.26h22.7v-100.18h-22.7v3.26ZM2658.21,221v18.53c0,14.59-6.53,21.39-20.55,21.39s-20.36-6.2-20.36-21.39v-18.53c0-14.19,6.85-21.39,20.36-21.39s20.55,7.79,20.55,21.39Z"/><path class="cls-1" d="M2747.71,178.78c-9.42,0-17.45,2.29-23.36,6.57v-4.94h-22.12v98.82h22.12v-58.91c0-18.04,12.43-20.73,19.85-20.73,12.98,0,19.29,6.78,19.29,20.73v58.91h22.12v-62.35c0-22.78-15.24-38.09-37.91-38.09Z"/><path class="cls-1" d="M2190.98,249.01c-1.25,9.19-7.7,13.66-19.72,13.66-14.19,0-20.24-6.36-20.24-21.27v-.46h62.48v-18.01c-.37-26.42-16.16-42.19-42.24-42.19s-42.61,16.18-42.61,42.23v18.43c0,26.05,16.33,42.23,42.61,42.23,23.78,0,40.28-13.32,42.04-33.94v-.61h-22.25l-.07-.07ZM2151.06,220.88c.57-13.5,6.87-19.54,20.2-19.54,12.44,0,18.93,6.42,19.78,19.54h-39.98Z"/><path class="cls-1" d="M2556.28,246.81c-1.25,9.19-7.7,13.66-19.72,13.66-14.19,0-20.24-6.36-20.24-21.27v-.46h62.48v-18.01c-.37-26.42-16.16-42.19-42.24-42.19s-42.61,16.18-42.61,42.23v18.43c0,26.05,16.33,42.23,42.61,42.23,23.78,0,40.28-13.32,42.04-33.94v-.61h-22.25l-.07-.07ZM2516.36,218.68c.57-13.5,6.87-19.54,20.2-19.54,12.44,0,18.93,6.42,19.78,19.54h-39.98Z"/></svg>
